<svg width="630" height="630" viewBox="0 0 630 630" fill="none" xmlns="http://www.w3.org/2000/svg">
<path d="M267.092 271.055H271.092L271.092 267.055L271.092 258.727L267.092 258.726L267.092 242.07L271.092 242.07L271.092 225.414L267.092 225.414L267.092 208.758L271.092 208.758L271.092 192.101L267.092 192.101L267.092 175.445L271.092 175.445L271.092 158.789L267.092 158.789L267.092 142.132L271.092 142.132L271.092 125.476L267.092 125.476L267.093 108.82L271.093 108.82L271.093 92.1634L267.093 92.1634L267.093 75.5071L271.093 75.5071L271.093 58.8508L267.093 58.8508L267.093 42.1945L271.093 42.1945L271.093 25.5382L267.093 25.5381L267.093 8.88184L271.093 8.88187L271.093 4.55371L275.055 4.55371L275.055 0.553682L290.978 0.553717L290.978 4.55374L306.901 4.55377L306.901 0.553768L322.824 0.553803L322.824 4.5538L338.747 4.55384L338.747 0.553841L354.67 0.553876L354.67 4.55387L358.631 4.55388L358.631 8.88202L362.631 8.88203L362.631 25.5384L358.631 25.5383L358.631 42.1946L362.631 42.1947L362.631 58.8509L358.631 58.8509L358.631 75.5072L362.631 75.5072L362.63 92.1635L358.63 92.1635L358.63 108.82L362.63 108.82L362.63 125.476L358.63 125.476L358.63 142.132L362.63 142.132L362.63 158.789L358.63 158.789L358.63 175.445L362.63 175.445L362.63 192.101L358.63 192.101L358.63 208.758L362.63 208.758L362.629 225.414L358.629 225.414L358.629 242.07L362.629 242.07L362.629 258.726L358.629 258.726L358.629 267.055L358.629 271.055L362.629 271.055L370.957 271.055L370.957 267.055H387.614V271.055H404.27V267.055L420.927 267.055L420.927 271.055L437.583 271.055V267.055H454.239V271.055L470.896 271.055L470.896 267.055L487.552 267.055V271.055L504.209 271.055L504.209 267.055H520.865L520.865 271.055L537.522 271.055V267.055H554.178V271.055H570.834V267.055L587.491 267.055L587.491 271.055H604.147L604.147 267.055L620.804 267.055V271.055L625.132 271.055V275.016H629.132V290.939H625.132L625.132 306.862H629.132V322.785H625.132V338.708H629.132V354.631H625.132V358.592H620.804V362.592H604.147V358.592H587.491V362.592L570.834 362.592V358.592H554.178V362.592L537.522 362.592V358.592H520.865L520.865 362.592H504.209V358.592H487.552V362.592L470.896 362.592L470.896 358.592H454.239V362.592L437.583 362.592V358.592H420.927V362.592H404.27V358.592H387.614L387.614 362.592H370.957V358.592H362.629H358.629L358.629 362.592L358.629 370.92L362.629 370.92L362.629 387.577L358.629 387.577L358.629 404.233L362.629 404.233L362.63 420.889L358.63 420.889L358.63 437.546L362.63 437.546L362.63 454.202L358.63 454.202L358.63 470.858L362.63 470.858L362.63 487.515L358.63 487.515L358.63 504.171L362.63 504.171L362.63 520.827L358.63 520.827L358.63 537.484L362.63 537.484L362.63 554.14L358.63 554.14L358.63 570.796L362.63 570.796L362.631 587.453L358.631 587.453L358.631 604.109L362.631 604.109L362.631 620.765L358.631 620.765L358.631 625.093L354.669 625.093L354.669 629.093L338.746 629.093L338.746 625.093H322.823L322.824 629.093L306.901 629.093L306.901 625.093L290.978 625.093L290.978 629.093L275.055 629.093L275.055 625.093L271.093 625.093L271.093 620.765L267.093 620.765L267.093 604.109L271.093 604.109L271.093 587.453L267.093 587.453L267.093 570.796L271.093 570.796L271.093 554.14L267.093 554.14L267.093 537.484L271.093 537.484L271.093 520.827L267.093 520.827L267.092 504.171L271.092 504.171L271.092 487.515L267.092 487.515L267.092 470.858L271.092 470.858L271.092 454.202L267.092 454.202L267.092 437.546L271.092 437.546L271.092 420.889L267.092 420.889L267.092 404.233L271.092 404.233L271.092 387.577L267.092 387.577L267.092 370.92L271.092 370.92L271.092 362.592L271.091 358.592L267.092 358.592H258.763L258.763 362.592H242.107V358.592H225.451V362.592H208.795V358.592L192.139 358.592V362.592L175.483 362.592L175.482 358.592L158.826 358.592V362.592L142.17 362.592L142.17 358.592L125.514 358.592L125.514 362.592L108.858 362.592V358.592L92.2016 358.592V362.592L75.5454 362.592L75.5454 358.592L58.8892 358.592L58.8892 362.592L42.233 362.592L42.233 358.592L25.5768 358.592L25.5768 362.592L8.92065 362.592L8.92064 358.592H4.59255L4.59255 354.631L0.592552 354.631L0.592546 338.708L4.59255 338.708L4.59254 322.785L0.592541 322.785L0.592537 306.862H4.59254L4.59253 290.939H0.592531L0.592527 275.016L4.59253 275.016L4.59253 271.054L8.92061 271.054L8.92062 267.054L25.5768 267.054L25.5768 271.054L42.233 271.054L42.233 267.054L58.8892 267.054L58.8892 271.054L75.5454 271.054L75.5454 267.054L92.2016 267.054L92.2016 271.054L108.858 271.054V267.054L125.514 267.055L125.514 271.055L142.17 271.055V267.055L158.826 267.055L158.826 271.055L175.482 271.055V267.055L192.139 267.055V271.055L208.795 271.055V267.055L225.451 267.055L225.451 271.055L242.107 271.055V267.055L258.763 267.055V271.055L267.092 271.055Z" stroke="#262626" stroke-width="8" stroke-dasharray="16 16"/>
</svg>
